Normalized EMG Linear Envelopes
nRows=65
nColumns=17

endheader
time	        VM	        VL	        RF	       GRA	        TA	   ADDLONG	   SEMIMEM	      BFLH	        GM	        GL	       TFL	   GLUTMAX	   GLUTMED	      PIRI	    OBTINT	        QF	
2.149	  0.014758	  0.000553	  0.018235	  0.163736	  0.128054	  0.035228	  0.106263	  0.113396	  0.147416	  0.027084	  0.033030	  0.052523	  0.176132	  0.206737	  0.444064	  0.168546	
2.1495	  0.014609	  0.000042	  0.017096	  0.164160	  0.127201	  0.035084	  0.108547	  0.115540	  0.148326	  0.026770	  0.032369	  0.051797	  0.173811	  0.204563	  0.438736	  0.169276	
2.15	  0.014466	  0.000000	  0.015989	  0.164605	  0.126359	  0.034946	  0.110873	  0.117733	  0.149240	  0.026461	  0.031718	  0.051067	  0.171494	  0.202398	  0.433500	  0.170032	
2.1505	  0.014330	  0.000000	  0.014912	  0.165069	  0.125529	  0.034813	  0.113239	  0.119977	  0.150155	  0.026156	  0.031077	  0.050335	  0.169181	  0.200245	  0.428355	  0.170813	
2.151	  0.014199	  0.000000	  0.013864	  0.165553	  0.124711	  0.034686	  0.115646	  0.122270	  0.151072	  0.025855	  0.030446	  0.049600	  0.166874	  0.198105	  0.423301	  0.171620	
2.1515	  0.014075	  0.000000	  0.012846	  0.166054	  0.123906	  0.034565	  0.118094	  0.124614	  0.151990	  0.025558	  0.029824	  0.048865	  0.164573	  0.195977	  0.418336	  0.172451	
2.152	  0.013957	  0.000000	  0.011857	  0.166573	  0.123114	  0.034450	  0.120582	  0.127007	  0.152907	  0.025266	  0.029212	  0.048127	  0.162277	  0.193863	  0.413461	  0.173308	
2.1525	  0.013845	  0.000000	  0.010896	  0.167107	  0.122337	  0.034341	  0.123111	  0.129451	  0.153825	  0.024978	  0.028610	  0.047390	  0.159989	  0.191765	  0.408673	  0.174190	
2.153	  0.013738	  0.000000	  0.009964	  0.167658	  0.121574	  0.034237	  0.125680	  0.131945	  0.154742	  0.024695	  0.028017	  0.046652	  0.157709	  0.189682	  0.403973	  0.175096	
2.1535	  0.013638	  0.000000	  0.009059	  0.168223	  0.120827	  0.034139	  0.128288	  0.134489	  0.155658	  0.024416	  0.027433	  0.045914	  0.155436	  0.187617	  0.399360	  0.176026	
2.154	  0.013544	  0.000000	  0.008181	  0.168801	  0.120094	  0.034046	  0.130936	  0.137084	  0.156573	  0.024142	  0.026858	  0.045177	  0.153173	  0.185568	  0.394832	  0.176980	
2.1545	  0.013456	  0.000000	  0.007330	  0.169393	  0.119378	  0.033959	  0.133624	  0.139729	  0.157486	  0.023874	  0.026293	  0.044440	  0.150918	  0.183539	  0.390391	  0.177957	
2.155	  0.013374	  0.000000	  0.006506	  0.169996	  0.118677	  0.033878	  0.136350	  0.142423	  0.158398	  0.023610	  0.025737	  0.043706	  0.148672	  0.181528	  0.386034	  0.178958	
2.1555	  0.013297	  0.000000	  0.005707	  0.170611	  0.117994	  0.033802	  0.139115	  0.145168	  0.159309	  0.023350	  0.025189	  0.042973	  0.146437	  0.179538	  0.381762	  0.179981	
2.156	  0.013227	  0.000000	  0.004933	  0.171235	  0.117327	  0.033732	  0.141918	  0.147963	  0.160218	  0.023096	  0.024651	  0.042242	  0.144212	  0.177569	  0.377575	  0.181026	
2.1565	  0.013163	  0.000000	  0.004184	  0.171869	  0.116677	  0.033667	  0.144758	  0.150808	  0.161126	  0.022847	  0.024122	  0.041515	  0.141998	  0.175621	  0.373472	  0.182093	
2.157	  0.013105	  0.000000	  0.003460	  0.172511	  0.116044	  0.033608	  0.147636	  0.153702	  0.162033	  0.022603	  0.023601	  0.040790	  0.139796	  0.173696	  0.369452	  0.183183	
2.1575	  0.013052	  0.000000	  0.002760	  0.173161	  0.115429	  0.033554	  0.150551	  0.156646	  0.162938	  0.022365	  0.023090	  0.040069	  0.137607	  0.171794	  0.365517	  0.184293	
2.158	  0.013006	  0.000000	  0.002083	  0.173817	  0.114832	  0.033505	  0.153502	  0.159638	  0.163842	  0.022131	  0.022587	  0.039352	  0.135430	  0.169915	  0.361666	  0.185425	
2.1585	  0.012966	  0.000000	  0.001429	  0.174479	  0.114253	  0.033462	  0.156489	  0.162679	  0.164745	  0.021903	  0.022092	  0.038640	  0.133266	  0.168060	  0.357899	  0.186577	
2.159	  0.012932	  0.000000	  0.000798	  0.175146	  0.113692	  0.033424	  0.159511	  0.165769	  0.165648	  0.021680	  0.021607	  0.037933	  0.131116	  0.166230	  0.354215	  0.187751	
2.1595	  0.012904	  0.000000	  0.000190	  0.175818	  0.113149	  0.033391	  0.162567	  0.168906	  0.166550	  0.021462	  0.021130	  0.037231	  0.128981	  0.164425	  0.350617	  0.188945	
2.16	  0.012882	  0.000000	  0.000000	  0.176495	  0.112624	  0.033363	  0.165658	  0.172090	  0.167451	  0.021250	  0.020661	  0.036536	  0.126862	  0.162646	  0.347102	  0.190159	
2.1605	  0.012866	  0.000000	  0.000000	  0.177176	  0.112117	  0.033340	  0.168781	  0.175321	  0.168353	  0.021043	  0.020201	  0.035846	  0.124758	  0.160893	  0.343672	  0.191394	
2.161	  0.012857	  0.000000	  0.000000	  0.177861	  0.111629	  0.033323	  0.171936	  0.178599	  0.169255	  0.020841	  0.019749	  0.035164	  0.122671	  0.159167	  0.340327	  0.192649	
2.1615	  0.012853	  0.000000	  0.000000	  0.178549	  0.111159	  0.033311	  0.175123	  0.181922	  0.170158	  0.020645	  0.019306	  0.034489	  0.120602	  0.157469	  0.337066	  0.193924	
2.162	  0.012856	  0.000000	  0.000000	  0.179241	  0.110707	  0.033304	  0.178340	  0.185291	  0.171063	  0.020454	  0.018871	  0.033823	  0.118550	  0.155799	  0.333890	  0.195219	
2.1625	  0.012865	  0.000000	  0.000000	  0.179937	  0.110273	  0.033302	  0.181586	  0.188705	  0.171969	  0.020268	  0.018444	  0.033164	  0.116517	  0.154158	  0.330798	  0.196534	
2.163	  0.012880	  0.000000	  0.000000	  0.180635	  0.109858	  0.033305	  0.184861	  0.192163	  0.172876	  0.020089	  0.018025	  0.032515	  0.114503	  0.152546	  0.327789	  0.197868	
2.1635	  0.012901	  0.000000	  0.000000	  0.181336	  0.109461	  0.033313	  0.188164	  0.195664	  0.173786	  0.019914	  0.017614	  0.031875	  0.112508	  0.150964	  0.324865	  0.199222	
2.164	  0.012929	  0.000000	  0.000000	  0.182040	  0.109083	  0.033326	  0.191494	  0.199209	  0.174699	  0.019745	  0.017211	  0.031245	  0.110534	  0.149414	  0.322023	  0.200595	
2.1645	  0.012963	  0.000000	  0.000000	  0.182746	  0.108722	  0.033344	  0.194849	  0.202797	  0.175613	  0.019582	  0.016816	  0.030626	  0.108580	  0.147894	  0.319263	  0.201988	
2.165	  0.013004	  0.000000	  0.000000	  0.183455	  0.108379	  0.033367	  0.198228	  0.206426	  0.176531	  0.019425	  0.016429	  0.030017	  0.106647	  0.146407	  0.316585	  0.203401	
2.1655	  0.013052	  0.000000	  0.000000	  0.184166	  0.108053	  0.033394	  0.201631	  0.210096	  0.177452	  0.019272	  0.016050	  0.029420	  0.104736	  0.144952	  0.313988	  0.204834	
2.166	  0.013106	  0.000000	  0.000000	  0.184880	  0.107745	  0.033427	  0.205055	  0.213807	  0.178376	  0.019126	  0.015679	  0.028835	  0.102847	  0.143531	  0.311471	  0.206287	
2.1665	  0.013166	  0.000000	  0.000000	  0.185596	  0.107454	  0.033464	  0.208501	  0.217557	  0.179303	  0.018985	  0.015315	  0.028262	  0.100981	  0.142143	  0.309033	  0.207759	
2.167	  0.013234	  0.000000	  0.000000	  0.186314	  0.107181	  0.033505	  0.211967	  0.221346	  0.180234	  0.018850	  0.014960	  0.027702	  0.099137	  0.140789	  0.306673	  0.209252	
2.1675	  0.013309	  0.000000	  0.000000	  0.187035	  0.106924	  0.033551	  0.215452	  0.225173	  0.181169	  0.018720	  0.014611	  0.027156	  0.097317	  0.139470	  0.304391	  0.210765	
2.168	  0.013390	  0.000000	  0.000000	  0.187758	  0.106684	  0.033601	  0.218954	  0.229037	  0.182109	  0.018596	  0.014271	  0.026623	  0.095520	  0.138185	  0.302185	  0.212298	
2.1685	  0.013479	  0.000000	  0.000000	  0.188484	  0.106460	  0.033655	  0.222472	  0.232938	  0.183052	  0.018478	  0.013938	  0.026104	  0.093748	  0.136936	  0.300055	  0.213851	
2.169	  0.013575	  0.000000	  0.000000	  0.189211	  0.106252	  0.033713	  0.226005	  0.236873	  0.184000	  0.018365	  0.013612	  0.025599	  0.092001	  0.135722	  0.297998	  0.215424	
2.1695	  0.013678	  0.000000	  0.000000	  0.189939	  0.106060	  0.033775	  0.229552	  0.240843	  0.184952	  0.018258	  0.013294	  0.025110	  0.090279	  0.134545	  0.296015	  0.217017	
2.17	  0.013789	  0.000000	  0.000000	  0.190669	  0.105884	  0.033841	  0.233113	  0.244848	  0.185909	  0.018157	  0.012983	  0.024637	  0.088583	  0.133403	  0.294104	  0.218630	
2.1705	  0.013906	  0.000000	  0.000000	  0.191400	  0.105724	  0.033910	  0.236685	  0.248885	  0.186871	  0.018062	  0.012679	  0.024179	  0.086912	  0.132298	  0.292263	  0.220262	
2.171	  0.014032	  0.000000	  0.000000	  0.192131	  0.105578	  0.033983	  0.240267	  0.252955	  0.187836	  0.017972	  0.012382	  0.023737	  0.085268	  0.131229	  0.290491	  0.221913	
2.1715	  0.014165	  0.000000	  0.000000	  0.192864	  0.105448	  0.034060	  0.243859	  0.257057	  0.188807	  0.017888	  0.012092	  0.023313	  0.083651	  0.130197	  0.288787	  0.223583	
2.172	  0.014306	  0.000000	  0.000000	  0.193597	  0.105332	  0.034140	  0.247459	  0.261189	  0.189782	  0.017810	  0.011809	  0.022905	  0.082061	  0.129202	  0.287150	  0.225271	
2.1725	  0.014454	  0.000000	  0.000000	  0.194330	  0.105230	  0.034223	  0.251067	  0.265352	  0.190762	  0.017738	  0.011533	  0.022515	  0.080498	  0.128243	  0.285577	  0.226977	
2.173	  0.014611	  0.000000	  0.000000	  0.195063	  0.105143	  0.034310	  0.254681	  0.269544	  0.191746	  0.017671	  0.011264	  0.022143	  0.078963	  0.127323	  0.284067	  0.228701	
2.1735	  0.014776	  0.000000	  0.000000	  0.195796	  0.105069	  0.034399	  0.258300	  0.273765	  0.192735	  0.017610	  0.011002	  0.021789	  0.077457	  0.126439	  0.282618	  0.230442	
2.174	  0.014948	  0.000000	  0.000000	  0.196529	  0.105009	  0.034492	  0.261923	  0.278013	  0.193728	  0.017555	  0.010746	  0.021454	  0.075979	  0.125594	  0.281229	  0.232200	
2.1745	  0.015130	  0.000000	  0.000000	  0.197262	  0.104962	  0.034587	  0.265550	  0.282288	  0.194726	  0.017506	  0.010496	  0.021139	  0.074529	  0.124785	  0.279898	  0.233974	
2.175	  0.015319	  0.000000	  0.000000	  0.197994	  0.104927	  0.034685	  0.269179	  0.286588	  0.195728	  0.017463	  0.010253	  0.020842	  0.073109	  0.124015	  0.278623	  0.235765	
2.1755	  0.015517	  0.000000	  0.000000	  0.198725	  0.104904	  0.034787	  0.272810	  0.290913	  0.196735	  0.017425	  0.010017	  0.020566	  0.071718	  0.123282	  0.277401	  0.237571	
2.176	  0.015724	  0.000000	  0.000000	  0.199456	  0.104894	  0.034890	  0.276442	  0.295262	  0.197747	  0.017393	  0.009786	  0.020310	  0.070356	  0.122587	  0.276232	  0.239393	
2.1765	  0.015940	  0.000000	  0.000000	  0.200186	  0.104895	  0.034997	  0.280074	  0.299633	  0.198763	  0.017367	  0.009562	  0.020075	  0.069025	  0.121929	  0.275112	  0.241229	
2.177	  0.016165	  0.000000	  0.000000	  0.200916	  0.104907	  0.035106	  0.283705	  0.304026	  0.199782	  0.017346	  0.009344	  0.019861	  0.067723	  0.121309	  0.274041	  0.243080	
2.1775	  0.016398	  0.000000	  0.000000	  0.201646	  0.104930	  0.035218	  0.287334	  0.308439	  0.200806	  0.017332	  0.009131	  0.019668	  0.066452	  0.120727	  0.273016	  0.244945	
2.178	  0.016641	  0.000000	  0.000000	  0.202376	  0.104964	  0.035333	  0.290962	  0.312871	  0.201833	  0.017323	  0.008924	  0.019497	  0.065210	  0.120183	  0.272035	  0.246824	
2.1785	  0.016894	  0.000000	  0.000000	  0.203107	  0.105008	  0.035450	  0.294587	  0.317321	  0.202864	  0.017319	  0.008724	  0.019348	  0.064000	  0.119676	  0.271098	  0.248716	
2.179	  0.017155	  0.000000	  0.000000	  0.203838	  0.105062	  0.035570	  0.298210	  0.321788	  0.203898	  0.017321	  0.008528	  0.019221	  0.062820	  0.119207	  0.270201	  0.250621	
2.1795	  0.017427	  0.000000	  0.000000	  0.204571	  0.105126	  0.035692	  0.301830	  0.326272	  0.204935	  0.017329	  0.008338	  0.019118	  0.061670	  0.118775	  0.269344	  0.252538	
2.18	  0.017708	  0.000000	  0.000000	  0.205306	  0.105199	  0.035817	  0.305447	  0.330771	  0.205974	  0.017343	  0.008154	  0.019038	  0.060552	  0.118381	  0.268525	  0.254468	
2.1805	  0.018000	  0.000000	  0.000000	  0.206042	  0.105281	  0.035945	  0.309061	  0.335284	  0.207017	  0.017362	  0.007974	  0.018981	  0.059465	  0.118025	  0.267744	  0.256409	
2.181	  0.018301	  0.000000	  0.000000	  0.206781	  0.105372	  0.036075	  0.312673	  0.339811	  0.208062	  0.017387	  0.007800	  0.018949	  0.058408	  0.117706	  0.266998	  0.258361	
